<mxfile host="app.diagrams.net" agent="Mozilla/5.0 (Windows NT 10.0; Win64; x64) AppleWebKit/537.36 (KHTML, like Gecko) Chrome/130.0.0.0 Safari/537.36" version="24.8.4">
  <diagram id="C5RBs43oDa-KdzZeNtuy" name="Page-1">
    <mxGraphModel dx="934" dy="494" grid="1" gridSize="10" guides="1" tooltips="1" connect="1" arrows="1" fold="1" page="1" pageScale="1" pageWidth="827" pageHeight="1169" math="0" shadow="0">
      <root>
        <mxCell id="WIyWlLk6GJQsqaUBKTNV-0" />
        <mxCell id="WIyWlLk6GJQsqaUBKTNV-1" parent="WIyWlLk6GJQsqaUBKTNV-0" />
        <mxCell id="zkfFHV4jXpPFQw0GAbJ--13" value="OrderItem1" style="swimlane;fontStyle=0;align=center;verticalAlign=top;childLayout=stackLayout;horizontal=1;startSize=26;horizontalStack=0;resizeParent=1;resizeLast=0;collapsible=1;marginBottom=0;rounded=0;shadow=0;strokeWidth=1;" parent="WIyWlLk6GJQsqaUBKTNV-1" vertex="1">
          <mxGeometry x="560" y="360" width="160" height="118" as="geometry">
            <mxRectangle x="340" y="380" width="170" height="26" as="alternateBounds" />
          </mxGeometry>
        </mxCell>
        <mxCell id="zkfFHV4jXpPFQw0GAbJ--14" value="id 1; &#xa;oid 1;&#xa;pid 1;&#xa;number 1; &#xa;product product1; " style="text;align=left;verticalAlign=top;spacingLeft=4;spacingRight=4;overflow=hidden;rotatable=0;points=[[0,0.5],[1,0.5]];portConstraint=eastwest;" parent="zkfFHV4jXpPFQw0GAbJ--13" vertex="1">
          <mxGeometry y="26" width="160" height="74" as="geometry" />
        </mxCell>
        <mxCell id="zkfFHV4jXpPFQw0GAbJ--15" value="" style="line;html=1;strokeWidth=1;align=left;verticalAlign=middle;spacingTop=-1;spacingLeft=3;spacingRight=3;rotatable=0;labelPosition=right;points=[];portConstraint=eastwest;" parent="zkfFHV4jXpPFQw0GAbJ--13" vertex="1">
          <mxGeometry y="100" width="160" height="8" as="geometry" />
        </mxCell>
        <mxCell id="zkfFHV4jXpPFQw0GAbJ--17" value="Order" style="swimlane;fontStyle=0;align=center;verticalAlign=top;childLayout=stackLayout;horizontal=1;startSize=26;horizontalStack=0;resizeParent=1;resizeLast=0;collapsible=1;marginBottom=0;rounded=0;shadow=0;strokeWidth=1;" parent="WIyWlLk6GJQsqaUBKTNV-1" vertex="1">
          <mxGeometry x="320" y="360" width="150" height="128" as="geometry">
            <mxRectangle x="550" y="140" width="160" height="26" as="alternateBounds" />
          </mxGeometry>
        </mxCell>
        <mxCell id="jBeG694GfNPODgiMQH2N-5" value="id: 1; &#xa;code: 1;&#xa;address: custom_address; &#xa;status: pay?1:0;&#xa;cstid: custom_id;" style="text;whiteSpace=wrap;" vertex="1" parent="zkfFHV4jXpPFQw0GAbJ--17">
          <mxGeometry y="26" width="150" height="80" as="geometry" />
        </mxCell>
        <mxCell id="jBeG694GfNPODgiMQH2N-6" value="" style="line;html=1;strokeWidth=1;align=left;verticalAlign=middle;spacingTop=-1;spacingLeft=3;spacingRight=3;rotatable=0;labelPosition=right;points=[];portConstraint=eastwest;" vertex="1" parent="zkfFHV4jXpPFQw0GAbJ--17">
          <mxGeometry y="106" width="150" height="8" as="geometry" />
        </mxCell>
        <mxCell id="jBeG694GfNPODgiMQH2N-0" value="Product1" style="swimlane;fontStyle=0;childLayout=stackLayout;horizontal=1;startSize=30;horizontalStack=0;resizeParent=1;resizeParentMax=0;resizeLast=0;collapsible=1;marginBottom=0;whiteSpace=wrap;html=1;fillColor=#d5e8d4;strokeColor=#82b366;" vertex="1" parent="WIyWlLk6GJQsqaUBKTNV-1">
          <mxGeometry x="780" y="360" width="140" height="80" as="geometry" />
        </mxCell>
        <mxCell id="jBeG694GfNPODgiMQH2N-8" value="id 1; &#xa;name foodname; &#xa;price 14.99;" style="text;whiteSpace=wrap;" vertex="1" parent="jBeG694GfNPODgiMQH2N-0">
          <mxGeometry y="30" width="140" height="50" as="geometry" />
        </mxCell>
        <mxCell id="jBeG694GfNPODgiMQH2N-11" value="" style="endArrow=diamondThin;endFill=0;endSize=24;html=1;rounded=0;entryX=1;entryY=0.5;entryDx=0;entryDy=0;exitX=0;exitY=0.5;exitDx=0;exitDy=0;" edge="1" parent="WIyWlLk6GJQsqaUBKTNV-1" source="zkfFHV4jXpPFQw0GAbJ--14">
          <mxGeometry width="160" relative="1" as="geometry">
            <mxPoint x="536.3199999999999" y="413.76599999999996" as="sourcePoint" />
            <mxPoint x="470" y="424.24" as="targetPoint" />
          </mxGeometry>
        </mxCell>
        <mxCell id="jBeG694GfNPODgiMQH2N-14" value="" style="endArrow=none;html=1;edgeStyle=orthogonalEdgeStyle;rounded=0;entryX=0;entryY=0.25;entryDx=0;entryDy=0;exitX=1.005;exitY=0.925;exitDx=0;exitDy=0;exitPerimeter=0;" edge="1" parent="WIyWlLk6GJQsqaUBKTNV-1" source="zkfFHV4jXpPFQw0GAbJ--14" target="jBeG694GfNPODgiMQH2N-0">
          <mxGeometry relative="1" as="geometry">
            <mxPoint x="720" y="470" as="sourcePoint" />
            <mxPoint x="860" y="460" as="targetPoint" />
          </mxGeometry>
        </mxCell>
        <mxCell id="jBeG694GfNPODgiMQH2N-31" value="OrderItem1" style="swimlane;fontStyle=0;align=center;verticalAlign=top;childLayout=stackLayout;horizontal=1;startSize=26;horizontalStack=0;resizeParent=1;resizeLast=0;collapsible=1;marginBottom=0;rounded=0;shadow=0;strokeWidth=1;fillColor=#fff2cc;strokeColor=#d6b656;labelBackgroundColor=none;" vertex="1" parent="WIyWlLk6GJQsqaUBKTNV-1">
          <mxGeometry x="560" y="210" width="160" height="118" as="geometry">
            <mxRectangle x="340" y="380" width="170" height="26" as="alternateBounds" />
          </mxGeometry>
        </mxCell>
        <mxCell id="jBeG694GfNPODgiMQH2N-32" value="id 1; &#xa;oid 1;&#xa;pid 1;&#xa;number 1; &#xa;product product1; " style="text;align=left;verticalAlign=top;spacingLeft=4;spacingRight=4;overflow=hidden;rotatable=0;points=[[0,0.5],[1,0.5]];portConstraint=eastwest;" vertex="1" parent="jBeG694GfNPODgiMQH2N-31">
          <mxGeometry y="26" width="160" height="74" as="geometry" />
        </mxCell>
        <mxCell id="jBeG694GfNPODgiMQH2N-33" value="" style="line;html=1;strokeWidth=1;align=left;verticalAlign=middle;spacingTop=-1;spacingLeft=3;spacingRight=3;rotatable=0;labelPosition=right;points=[];portConstraint=eastwest;" vertex="1" parent="jBeG694GfNPODgiMQH2N-31">
          <mxGeometry y="100" width="160" height="8" as="geometry" />
        </mxCell>
        <mxCell id="jBeG694GfNPODgiMQH2N-34" value="Product2" style="swimlane;fontStyle=0;childLayout=stackLayout;horizontal=1;startSize=30;horizontalStack=0;resizeParent=1;resizeParentMax=0;resizeLast=0;collapsible=1;marginBottom=0;whiteSpace=wrap;html=1;shadow=0;fillColor=#fff2cc;strokeColor=#d6b656;labelBackgroundColor=none;" vertex="1" parent="WIyWlLk6GJQsqaUBKTNV-1">
          <mxGeometry x="790" y="220" width="140" height="80" as="geometry" />
        </mxCell>
        <mxCell id="jBeG694GfNPODgiMQH2N-35" value="id 2; &#xa;name foodname; &#xa;price 14.99;" style="text;whiteSpace=wrap;" vertex="1" parent="jBeG694GfNPODgiMQH2N-34">
          <mxGeometry y="30" width="140" height="50" as="geometry" />
        </mxCell>
        <mxCell id="jBeG694GfNPODgiMQH2N-36" value="" style="endArrow=diamondThin;endFill=0;endSize=24;html=1;rounded=0;entryX=1;entryY=0.5;entryDx=0;entryDy=0;shadow=0;fillColor=#fff2cc;strokeColor=#d6b656;labelBackgroundColor=none;exitX=0.022;exitY=0.151;exitDx=0;exitDy=0;exitPerimeter=0;" edge="1" parent="WIyWlLk6GJQsqaUBKTNV-1" source="jBeG694GfNPODgiMQH2N-31">
          <mxGeometry width="160" relative="1" as="geometry">
            <mxPoint x="530" y="240" as="sourcePoint" />
            <mxPoint x="470" y="391.24" as="targetPoint" />
            <Array as="points">
              <mxPoint x="530" y="228" />
              <mxPoint x="530" y="390" />
              <mxPoint x="510" y="391" />
            </Array>
          </mxGeometry>
        </mxCell>
        <mxCell id="jBeG694GfNPODgiMQH2N-37" value="" style="endArrow=none;html=1;edgeStyle=orthogonalEdgeStyle;rounded=0;entryX=0;entryY=0.25;entryDx=0;entryDy=0;shadow=0;fillColor=#fff2cc;strokeColor=#d6b656;labelBackgroundColor=none;" edge="1" parent="WIyWlLk6GJQsqaUBKTNV-1" target="jBeG694GfNPODgiMQH2N-34">
          <mxGeometry relative="1" as="geometry">
            <mxPoint x="720" y="310" as="sourcePoint" />
            <mxPoint x="880" y="310" as="targetPoint" />
          </mxGeometry>
        </mxCell>
        <mxCell id="jBeG694GfNPODgiMQH2N-45" value="OrderItem1" style="swimlane;fontStyle=0;align=center;verticalAlign=top;childLayout=stackLayout;horizontal=1;startSize=26;horizontalStack=0;resizeParent=1;resizeLast=0;collapsible=1;marginBottom=0;rounded=0;shadow=0;strokeWidth=1;fillColor=#d5e8d4;strokeColor=#82b366;" vertex="1" parent="WIyWlLk6GJQsqaUBKTNV-1">
          <mxGeometry x="580" y="514" width="160" height="118" as="geometry">
            <mxRectangle x="340" y="380" width="170" height="26" as="alternateBounds" />
          </mxGeometry>
        </mxCell>
        <mxCell id="jBeG694GfNPODgiMQH2N-46" value="id 1; &#xa;oid 1;&#xa;pid 1;&#xa;number 1; &#xa;product product1; " style="text;align=left;verticalAlign=top;spacingLeft=4;spacingRight=4;overflow=hidden;rotatable=0;points=[[0,0.5],[1,0.5]];portConstraint=eastwest;" vertex="1" parent="jBeG694GfNPODgiMQH2N-45">
          <mxGeometry y="26" width="160" height="74" as="geometry" />
        </mxCell>
        <mxCell id="jBeG694GfNPODgiMQH2N-47" value="" style="line;html=1;strokeWidth=1;align=left;verticalAlign=middle;spacingTop=-1;spacingLeft=3;spacingRight=3;rotatable=0;labelPosition=right;points=[];portConstraint=eastwest;" vertex="1" parent="jBeG694GfNPODgiMQH2N-45">
          <mxGeometry y="100" width="160" height="8" as="geometry" />
        </mxCell>
        <mxCell id="jBeG694GfNPODgiMQH2N-48" value="Product1" style="swimlane;fontStyle=0;childLayout=stackLayout;horizontal=1;startSize=30;horizontalStack=0;resizeParent=1;resizeParentMax=0;resizeLast=0;collapsible=1;marginBottom=0;whiteSpace=wrap;html=1;fillColor=#d5e8d4;strokeColor=#82b366;" vertex="1" parent="WIyWlLk6GJQsqaUBKTNV-1">
          <mxGeometry x="800" y="545" width="140" height="80" as="geometry" />
        </mxCell>
        <mxCell id="jBeG694GfNPODgiMQH2N-49" value="id 1; &#xa;name foodname; &#xa;price 14.99;" style="text;whiteSpace=wrap;" vertex="1" parent="jBeG694GfNPODgiMQH2N-48">
          <mxGeometry y="30" width="140" height="50" as="geometry" />
        </mxCell>
        <mxCell id="jBeG694GfNPODgiMQH2N-50" value="" style="endArrow=diamondThin;endFill=0;endSize=24;html=1;rounded=0;entryX=0.998;entryY=0.835;entryDx=0;entryDy=0;exitX=-0.006;exitY=0.145;exitDx=0;exitDy=0;fillColor=#d5e8d4;strokeColor=#82b366;entryPerimeter=0;exitPerimeter=0;" edge="1" parent="WIyWlLk6GJQsqaUBKTNV-1" source="jBeG694GfNPODgiMQH2N-45" target="jBeG694GfNPODgiMQH2N-5">
          <mxGeometry width="160" relative="1" as="geometry">
            <mxPoint x="566.3199999999999" y="443.76599999999996" as="sourcePoint" />
            <mxPoint x="500" y="454.24" as="targetPoint" />
            <Array as="points">
              <mxPoint x="550" y="531" />
              <mxPoint x="550" y="453" />
            </Array>
          </mxGeometry>
        </mxCell>
        <mxCell id="jBeG694GfNPODgiMQH2N-51" value="" style="endArrow=none;html=1;edgeStyle=orthogonalEdgeStyle;rounded=0;entryX=0;entryY=0.25;entryDx=0;entryDy=0;fillColor=#d5e8d4;strokeColor=#82b366;exitX=1.012;exitY=0.925;exitDx=0;exitDy=0;exitPerimeter=0;" edge="1" parent="WIyWlLk6GJQsqaUBKTNV-1" target="jBeG694GfNPODgiMQH2N-48" source="jBeG694GfNPODgiMQH2N-46">
          <mxGeometry relative="1" as="geometry">
            <mxPoint x="730" y="490" as="sourcePoint" />
            <mxPoint x="890" y="490" as="targetPoint" />
          </mxGeometry>
        </mxCell>
        <mxCell id="jBeG694GfNPODgiMQH2N-56" value="Product3" style="swimlane;fontStyle=0;childLayout=stackLayout;horizontal=1;startSize=30;horizontalStack=0;resizeParent=1;resizeParentMax=0;resizeLast=0;collapsible=1;marginBottom=0;whiteSpace=wrap;html=1;fillColor=#dae8fc;strokeColor=#6c8ebf;" vertex="1" parent="WIyWlLk6GJQsqaUBKTNV-1">
          <mxGeometry x="780" y="440" width="140" height="80" as="geometry" />
        </mxCell>
        <mxCell id="jBeG694GfNPODgiMQH2N-57" value="id 3; &#xa;name foodname; &#xa;price 14.99;" style="text;whiteSpace=wrap;" vertex="1" parent="jBeG694GfNPODgiMQH2N-56">
          <mxGeometry y="30" width="140" height="50" as="geometry" />
        </mxCell>
        <mxCell id="jBeG694GfNPODgiMQH2N-58" value="Product2" style="swimlane;fontStyle=0;childLayout=stackLayout;horizontal=1;startSize=30;horizontalStack=0;resizeParent=1;resizeParentMax=0;resizeLast=0;collapsible=1;marginBottom=0;whiteSpace=wrap;html=1;fillColor=#fff2cc;strokeColor=#d6b656;" vertex="1" parent="WIyWlLk6GJQsqaUBKTNV-1">
          <mxGeometry x="920" y="360" width="140" height="80" as="geometry" />
        </mxCell>
        <mxCell id="jBeG694GfNPODgiMQH2N-59" value="id 2; &#xa;name foodname; &#xa;price 14.99;" style="text;whiteSpace=wrap;" vertex="1" parent="jBeG694GfNPODgiMQH2N-58">
          <mxGeometry y="30" width="140" height="50" as="geometry" />
        </mxCell>
        <mxCell id="jBeG694GfNPODgiMQH2N-60" value="" style="endArrow=none;html=1;edgeStyle=orthogonalEdgeStyle;rounded=0;entryX=0;entryY=0.25;entryDx=0;entryDy=0;exitX=1.019;exitY=0.932;exitDx=0;exitDy=0;exitPerimeter=0;" edge="1" parent="WIyWlLk6GJQsqaUBKTNV-1" source="zkfFHV4jXpPFQw0GAbJ--14" target="jBeG694GfNPODgiMQH2N-56">
          <mxGeometry relative="1" as="geometry">
            <mxPoint x="731" y="464" as="sourcePoint" />
            <mxPoint x="790" y="390" as="targetPoint" />
          </mxGeometry>
        </mxCell>
        <mxCell id="jBeG694GfNPODgiMQH2N-61" value="" style="endArrow=none;html=1;edgeStyle=orthogonalEdgeStyle;rounded=0;entryX=0.363;entryY=0;entryDx=0;entryDy=0;entryPerimeter=0;" edge="1" parent="WIyWlLk6GJQsqaUBKTNV-1">
          <mxGeometry relative="1" as="geometry">
            <mxPoint x="730" y="454.5" as="sourcePoint" />
            <mxPoint x="970.8199999999999" y="354.5" as="targetPoint" />
            <Array as="points">
              <mxPoint x="720" y="455" />
              <mxPoint x="720" y="456" />
              <mxPoint x="750" y="456" />
              <mxPoint x="750" y="350" />
              <mxPoint x="971" y="350" />
            </Array>
          </mxGeometry>
        </mxCell>
        <mxCell id="jBeG694GfNPODgiMQH2N-64" value="Product3" style="swimlane;fontStyle=0;childLayout=stackLayout;horizontal=1;startSize=30;horizontalStack=0;resizeParent=1;resizeParentMax=0;resizeLast=0;collapsible=1;marginBottom=0;whiteSpace=wrap;html=1;fillColor=#dae8fc;strokeColor=#6c8ebf;" vertex="1" parent="WIyWlLk6GJQsqaUBKTNV-1">
          <mxGeometry x="800" y="625" width="140" height="80" as="geometry" />
        </mxCell>
        <mxCell id="jBeG694GfNPODgiMQH2N-65" value="id 3; &#xa;name foodname; &#xa;price 14.99;" style="text;whiteSpace=wrap;" vertex="1" parent="jBeG694GfNPODgiMQH2N-64">
          <mxGeometry y="30" width="140" height="50" as="geometry" />
        </mxCell>
        <mxCell id="jBeG694GfNPODgiMQH2N-66" value="" style="endArrow=none;html=1;edgeStyle=orthogonalEdgeStyle;rounded=0;entryX=0;entryY=0.25;entryDx=0;entryDy=0;fillColor=#d5e8d4;strokeColor=#82b366;exitX=1;exitY=0.946;exitDx=0;exitDy=0;exitPerimeter=0;" edge="1" parent="WIyWlLk6GJQsqaUBKTNV-1" source="jBeG694GfNPODgiMQH2N-46" target="jBeG694GfNPODgiMQH2N-64">
          <mxGeometry relative="1" as="geometry">
            <mxPoint x="752" y="618" as="sourcePoint" />
            <mxPoint x="810" y="575" as="targetPoint" />
            <Array as="points">
              <mxPoint x="770" y="610" />
              <mxPoint x="770" y="645" />
            </Array>
          </mxGeometry>
        </mxCell>
      </root>
    </mxGraphModel>
  </diagram>
</mxfile>
